HIERARCHY
ROOT root
{
OFFSET 0.0 93.2929 0.0
CHANNELS 6 Xposition Yposition Zposition Zrotation Xrotation Yrotation
JOINT torso_1
{
OFFSET 0.0 5.07867 -1.15138
CHANNELS 6 Xposition Yposition Zposition Zrotation Xrotation Yrotation
JOINT torso_2
{
OFFSET 0.0 5.61661 1.07143
CHANNELS 6 Xposition Yposition Zposition Zrotation Xrotation Yrotation
JOINT torso_3
{
OFFSET -1.02604e-17 5.98978 0.11501
CHANNELS 6 Xposition Yposition Zposition Zrotation Xrotation Yrotation
JOINT torso_4
{
OFFSET -1.10457e-17 6.50583 -0.443523
CHANNELS 6 Xposition Yposition Zposition Zrotation Xrotation Yrotation
JOINT torso_5
{
OFFSET -1.97295e-17 7.60548 -1.50593
CHANNELS 6 Xposition Yposition Zposition Zrotation Xrotation Yrotation
JOINT torso_6
{
OFFSET -2.53307e-17 9.49737 -0.914492
CHANNELS 6 Xposition Yposition Zposition Zrotation Xrotation Yrotation
JOINT torso_7
{
OFFSET -2.90401e-17 10.5513 1.57691
CHANNELS 6 Xposition Yposition Zposition Zrotation Xrotation Yrotation
JOINT neck_1
{
OFFSET -1.29193e-17 4.78644 0.715339
CHANNELS 6 Xposition Yposition Zposition Zrotation Xrotation Yrotation
JOINT neck_2
{
OFFSET -1.8116e-17 4.82109 0.421791
CHANNELS 6 Xposition Yposition Zposition Zrotation Xrotation Yrotation
JOINT head
{
OFFSET -2.00958e-17 4.83041 0.765062
CHANNELS 6 Xposition Yposition Zposition Zrotation Xrotation Yrotation
End Site
{
OFFSET 0.0 0.1 0.0
}
}
}
}
JOINT l_shoulder
{
OFFSET 1.23299 -7.60731 7.53374
CHANNELS 6 Xposition Yposition Zposition Zrotation Xrotation Yrotation
JOINT l_up_arm
{
OFFSET 12.9547 3.2495 -3.26872
CHANNELS 6 Xposition Yposition Zposition Zrotation Xrotation Yrotation
JOINT l_low_arm
{
OFFSET 29.2081 0.0598081 0.137039
CHANNELS 6 Xposition Yposition Zposition Zrotation Xrotation Yrotation
JOINT l_hand
{
OFFSET 24.234 0.0496219 0.113701
CHANNELS 6 Xposition Yposition Zposition Zrotation Xrotation Yrotation
End Site
{
OFFSET 0.1 0.0 0.0
}
}
}
}
}
JOINT r_shoulder
{
OFFSET -1.23299 -7.60729 7.53365
CHANNELS 6 Xposition Yposition Zposition Zrotation Xrotation Yrotation
JOINT r_up_arm
{
OFFSET -12.9547 3.2495 -3.26872
CHANNELS 6 Xposition Yposition Zposition Zrotation Xrotation Yrotation
JOINT r_low_arm
{
OFFSET -29.2081 0.0598081 0.137039
CHANNELS 6 Xposition Yposition Zposition Zrotation Xrotation Yrotation
JOINT r_hand
{
OFFSET -24.234 0.0496218 0.113702
CHANNELS 6 Xposition Yposition Zposition Zrotation Xrotation Yrotation
End Site
{
OFFSET -0.1 0.0 0.0
}
}
}
}
}
}
}
}
}
}
}
}
JOINT l_up_leg
{
OFFSET 9.23673 -4.20556 2.0327
CHANNELS 6 Xposition Yposition Zposition Zrotation Xrotation Yrotation
JOINT l_low_leg
{
OFFSET -0.852353 -38.7721 -0.655187
CHANNELS 6 Xposition Yposition Zposition Zrotation Xrotation Yrotation
JOINT l_foot
{
OFFSET -2.32622 -40.4017 -6.04875
CHANNELS 6 Xposition Yposition Zposition Zrotation Xrotation Yrotation
JOINT l_toes
{
OFFSET 0.779096 -9.8844 12.4959
CHANNELS 6 Xposition Yposition Zposition Zrotation Xrotation Yrotation
End Site
{
OFFSET 0.0 0.0 0.1
}
}
}
}
}
JOINT r_up_leg
{
OFFSET -9.23673 -4.20556 2.0327
CHANNELS 6 Xposition Yposition Zposition Zrotation Xrotation Yrotation
JOINT r_low_leg
{
OFFSET 0.852353 -38.7721 -0.655187
CHANNELS 6 Xposition Yposition Zposition Zrotation Xrotation Yrotation
JOINT r_foot
{
OFFSET 2.32622 -40.4017 -6.04875
CHANNELS 6 Xposition Yposition Zposition Zrotation Xrotation Yrotation
JOINT r_toes
{
OFFSET -0.779096 -9.8844 12.4959
CHANNELS 6 Xposition Yposition Zposition Zrotation Xrotation Yrotation
End Site
{
OFFSET 0.0 0.0 0.1
}
}
}
}
}
}
MOTION
Frames: 4
Frame Time: 0.016667
-298.988 93.2929 -60.8183 -0.0 0.0 -0.0 0.0 5.07867 -1.15138 -0.0 0.0 -0.0 0.0 5.61661 1.07143 -0.0 0.0 -0.0 -1.02604e-17 5.98978 0.11501 -0.0 0.0 -0.0 -1.10457e-17 6.50583 -0.443523 -0.0 0.0 -0.0 -1.97295e-17 7.60548 -1.50593 -0.0 0.0 -0.0 -2.53307e-17 9.49737 -0.914492 -0.0 0.0 -0.0 -2.90401e-17 10.5513 1.57691 -0.0 0.0 -0.0 -1.29193e-17 4.78644 0.715339 -0.0 0.0 -0.0 -1.8116e-17 4.82109 0.421791 -0.0 0.0 -0.0 -2.00958e-17 4.83041 0.765062 -0.0 0.0 -0.0 1.23299 -7.60731 7.53374 -0.0 0.0 -0.0 12.9547 3.2495 -3.26872 -0.0 0.0 -0.0 29.2081 0.0598081 0.137039 -0.0 0.0 -0.0 24.234 0.0496219 0.113701 -0.0 0.0 -0.0 -1.23299 -7.60729 7.53365 -0.0 0.0 -0.0 -12.9547 3.2495 -3.26872 -0.0 0.0 -0.0 -29.2081 0.0598081 0.137039 -0.0 0.0 -0.0 -24.234 0.0496218 0.113702 -0.0 0.0 -0.0 9.23673 -4.20556 2.0327 -0.0 0.0 -0.0 -0.852353 -38.7721 -0.655187 -0.0 0.0 -0.0 -2.32622 -40.4017 -6.04875 -0.0 0.0 -0.0 0.779096 -9.8844 12.4959 -0.0 0.0 -0.0 -9.23673 -4.20556 2.0327 -0.0 0.0 -0.0 0.852353 -38.7721 -0.655187 -0.0 0.0 -0.0 2.32622 -40.4017 -6.04875 -0.0 0.0 -0.0 -0.779096 -9.8844 12.4959 -0.0 0.0 -0.0
-1.1639999999999873 93.343 -0.13629999999999853 2.55807 -0.300452 -0.720538 0.0 5.07867 -1.15138 -0.0602719 -1.70688 0.28547 0.0 5.61661 1.07143 -0.0958993 -0.965693 0.341611 -1.02604e-17 5.98978 0.11501 -0.115524 -0.0963196 0.35467 -1.10457e-17 6.50583 -0.443523 -0.120071 0.965496 0.32364 -1.97295e-17 7.60548 -1.50593 -0.0821056 1.22286 0.281373 -2.53307e-17 9.49737 -0.914492 0.0410363 1.23646 0.271754 -2.90401e-17 10.5513 1.57691 -0.0102349 0.153275 -0.0118434 -1.29193e-17 4.78644 0.715339 0.324884 2.62848 -1.43252 -1.8116e-17 4.82109 0.421791 -1.43362 0.996401 -0.67336 -2.00958e-17 4.83041 0.765062 -2.02558 6.8635 -1.34072 1.23299 -7.60731 7.53374 2.81241 1.11731 -3.47342 12.9547 3.2495 -3.26872 -65.0754 30.1922 -23.5045 29.2081 0.0598081 0.137039 11.8728 -13.8918 -99.6294 24.234 0.0496219 0.113701 -2.35547 -41.425 -8.50017 -1.23299 -7.60729 7.53365 -9.15403 -0.390321 1.0784 -12.9547 3.2495 -3.26872 53.3148 47.0553 46.7538 -29.2081 0.0598081 0.137039 -11.9185 -13.6002 98.1965 -24.234 0.0496218 0.113702 -0.0653174 -26.1916 2.43511 9.23673 -4.20556 2.0327 -0.538379 -3.31332 -13.1626 -0.852353 -38.7721 -0.655187 -0.0393841 0.146974 -0.00251492 -2.32622 -40.4017 -6.04875 -1.40021 3.69451 15.226 0.779096 -9.8844 12.4959 4.96962e-17 -7.95139e-16 1.2424e-17 -9.23673 -4.20556 2.0327 -2.50655 -0.0331535 16.8838 0.852353 -38.7721 -0.655187 -0.0320214 -0.119479 -0.0021184 2.32622 -40.4017 -6.04875 -1.32011 -1.26631 -15.1055 -0.779096 -9.8844 12.4959 -6.58938e-16 -5.57126e-16 -1.27432e-14
-1.1659999999999968 93.3383 -0.142000000000003 2.56667 -0.334905 -0.73056 0.0 5.07867 -1.15138 -0.0596522 -1.68551 0.284559 0.0 5.61661 1.07143 -0.0955137 -0.951218 0.340828 -1.02604e-17 5.98978 0.11501 -0.115273 -0.0898697 0.354061 -1.10457e-17 6.50583 -0.443523 -0.119866 0.959402 0.323152 -1.97295e-17 7.60548 -1.50593 -0.0820389 1.20843 0.280815 -2.53307e-17 9.49737 -0.914492 0.0408407 1.21748 0.271273 -2.90401e-17 10.5513 1.57691 -0.0102239 0.153571 -0.0118006 -1.29193e-17 4.78644 0.715339 0.327516 2.66208 -1.44293 -1.8116e-17 4.82109 0.421791 -1.42798 1.03896 -0.67783 -2.00958e-17 4.83041 0.765062 -2.01676 6.9108 -1.34737 1.23299 -7.60731 7.53374 2.81369 1.12895 -3.48151 12.9547 3.2495 -3.26872 -65.13 30.1645 -23.4631 29.2081 0.0598081 0.137039 11.8729 -13.8913 -99.6268 24.234 0.0496219 0.113701 -2.36453 -41.4671 -8.50972 -1.23299 -7.60729 7.53365 -9.17072 -0.381181 1.07922 -12.9547 3.2495 -3.26872 53.2927 47.079 46.7169 -29.2081 0.0598081 0.137039 -11.9176 -13.6067 98.2283 -24.234 0.0496218 0.113702 -0.0410912 -26.2435 2.46156 9.23673 -4.20556 2.0327 -0.543961 -3.28654 -13.1621 -0.852353 -38.7721 -0.655187 -0.0429188 0.160166 -0.00273571 -2.32622 -40.4017 -6.04875 -1.40338 3.68155 15.2271 0.779096 -9.8844 12.4959 4.96962e-17 -7.95139e-16 1.2424e-17 -9.23673 -4.20556 2.0327 -2.51418 -0.0101973 16.8603 0.852353 -38.7721 -0.655187 -0.027433 -0.102359 -0.0018107 2.32622 -40.4017 -6.04875 -1.32504 -1.28986 -15.1058 -0.779096 -9.8844 12.4959 -9.90246e-16 -5.46773e-16 -1.27224e-14
-1.1659999999999968 93.333 -0.14180000000000348 2.56111 -0.361249 -0.740284 0.0 5.07867 -1.15138 -0.0553364 -1.67047 0.283284 0.0 5.61661 1.07143 -0.0922052 -0.941014 0.339906 -1.02604e-17 5.98978 0.11501 -0.113221 -0.0856015 0.353252 -1.10457e-17 6.50583 -0.443523 -0.119059 0.954254 0.322347 -1.97295e-17 7.60548 -1.50593 -0.0828275 1.19737 0.279926 -2.53307e-17 9.49737 -0.914492 0.0385916 1.20303 0.271197 -2.90401e-17 10.5513 1.57691 -0.0102474 0.153809 -0.0117213 -1.29193e-17 4.78644 0.715339 0.327156 2.68245 -1.43688 -1.8116e-17 4.82109 0.421791 -1.44096 1.07082 -0.675407 -2.00958e-17 4.83041 0.765062 -2.02249 6.96031 -1.35991 1.23299 -7.60731 7.53374 2.81533 1.13845 -3.48705 12.9547 3.2495 -3.26872 -65.196 30.1433 -23.4156 29.2081 0.0598081 0.137039 11.8726 -13.893 -99.635 24.234 0.0496219 0.113701 -2.36874 -41.4832 -8.50381 -1.23299 -7.60729 7.53365 -9.17452 -0.373955 1.07971 -12.9547 3.2495 -3.26872 53.248 47.1122 46.6983 -29.2081 0.0598081 0.137039 -11.9166 -13.6134 98.2612 -24.234 0.0496218 0.113702 -0.0337795 -26.2713 2.47218 9.23673 -4.20556 2.0327 -0.535414 -3.26958 -13.1646 -0.852353 -38.7721 -0.655187 -0.0501725 0.187238 -0.00318626 -2.32622 -40.4017 -6.04875 -1.40181 3.64684 15.2288 0.779096 -9.8844 12.4959 -6.05564e-16 -8.25854e-16 4.31394e-17 -9.23673 -4.20556 2.0327 -2.5055 -0.000550399 16.8214 0.852353 -38.7721 -0.655187 -0.0186735 -0.0696768 -0.00122707 2.32622 -40.4017 -6.04875 -1.33948 -1.31112 -15.1051 -0.779096 -9.8844 12.4959 -6.66293e-16 -5.56896e-16 -1.27427e-14
